<svg width="160" height="46" viewBox="0 0 160 46" fill="none" xmlns="http://www.w3.org/2000/svg">
<rect width="160" height="46" rx="8" fill="#111111" fill-opacity="0.8"/>
<path d="M16.1277 28.7262H12.8315V18.5444H16.2321C17.2297 18.5444 18.0865 18.7482 18.8024 19.1559C19.5183 19.5602 20.0668 20.1419 20.448 20.9009C20.8324 21.6566 21.0247 22.5631 21.0247 23.6204C21.0247 24.681 20.8308 25.5924 20.443 26.3547C20.0585 27.1171 19.5017 27.7037 18.7725 28.1147C18.0434 28.5224 17.1618 28.7262 16.1277 28.7262ZM14.3677 27.3839H16.0431C16.8187 27.3839 17.4634 27.238 17.9771 26.9464C18.4908 26.6514 18.8753 26.2255 19.1305 25.6687C19.3857 25.1085 19.5133 24.4258 19.5133 23.6204C19.5133 22.8216 19.3857 22.1438 19.1305 21.587C18.8786 21.0302 18.5024 20.6076 18.002 20.3192C17.5015 20.0309 16.88 19.8867 16.1376 19.8867H14.3677V27.3839ZM26.1069 28.8803C25.3545 28.8803 24.7066 28.7196 24.163 28.3981C23.6228 28.0733 23.2051 27.6175 22.9102 27.0309C22.6185 26.4409 22.4727 25.7499 22.4727 24.9577C22.4727 24.1755 22.6185 23.4861 22.9102 22.8895C23.2051 22.293 23.6161 21.8273 24.1431 21.4925C24.6734 21.1578 25.2932 20.9904 26.0025 20.9904C26.4334 20.9904 26.851 21.0617 27.2553 21.2042C27.6597 21.3467 28.0226 21.5704 28.3441 21.8753C28.6656 22.1803 28.9192 22.5763 29.1048 23.0636C29.2904 23.5475 29.3832 24.1358 29.3832 24.8285V25.3555H23.3129V24.2418H27.9265C27.9265 23.8507 27.8469 23.5044 27.6879 23.2028C27.5288 22.8978 27.305 22.6575 27.0167 22.4819C26.7317 22.3062 26.3969 22.2184 26.0124 22.2184C25.5948 22.2184 25.2302 22.3211 24.9187 22.5266C24.6104 22.7288 24.3718 22.994 24.2028 23.3221C24.0371 23.6469 23.9542 23.9999 23.9542 24.381V25.2511C23.9542 25.7615 24.0437 26.1957 24.2227 26.5536C24.4049 26.9116 24.6585 27.185 24.9833 27.3739C25.3081 27.5595 25.6876 27.6523 26.1218 27.6523C26.4035 27.6523 26.6604 27.6126 26.8924 27.533C27.1244 27.4502 27.3249 27.3275 27.494 27.1651C27.663 27.0027 27.7923 26.8022 27.8817 26.5636L29.2887 26.8171C29.176 27.2314 28.9738 27.5943 28.6822 27.9059C28.3938 28.2141 28.0309 28.4544 27.5934 28.6268C27.1592 28.7958 26.6637 28.8803 26.1069 28.8803ZM36.7548 22.9542L35.4075 23.1928C35.3511 23.0205 35.2617 22.8564 35.139 22.7006C35.0197 22.5449 34.8573 22.4172 34.6518 22.3178C34.4463 22.2184 34.1895 22.1687 33.8812 22.1687C33.4603 22.1687 33.109 22.2631 32.8272 22.452C32.5455 22.6377 32.4047 22.8779 32.4047 23.1729C32.4047 23.4281 32.4991 23.6336 32.688 23.7894C32.877 23.9452 33.1819 24.0728 33.6028 24.1722L34.8159 24.4506C35.5185 24.613 36.0422 24.8633 36.3869 25.2013C36.7316 25.5394 36.9039 25.9786 36.9039 26.5188C36.9039 26.9762 36.7714 27.3839 36.5062 27.7418C36.2444 28.0965 35.8781 28.3749 35.4075 28.577C34.9402 28.7792 34.3983 28.8803 33.7818 28.8803C32.9267 28.8803 32.229 28.698 31.6887 28.3334C31.1485 27.9655 30.8171 27.4435 30.6944 26.7674L32.1312 26.5486C32.2207 26.9232 32.4047 27.2065 32.6831 27.3988C32.9615 27.5877 33.3244 27.6822 33.7718 27.6822C34.2591 27.6822 34.6485 27.5811 34.9402 27.3789C35.2318 27.1734 35.3777 26.9232 35.3777 26.6282C35.3777 26.3895 35.2882 26.189 35.1092 26.0266C34.9335 25.8642 34.6634 25.7416 34.2988 25.6587L33.0062 25.3753C32.2936 25.2129 31.7666 24.9544 31.4252 24.5998C31.0872 24.2451 30.9181 23.796 30.9181 23.2525C30.9181 22.8017 31.0441 22.4073 31.296 22.0692C31.5479 21.7312 31.8959 21.4677 32.34 21.2788C32.7842 21.0865 33.2929 20.9904 33.8663 20.9904C34.6916 20.9904 35.3412 21.1694 35.8152 21.5273C36.2891 21.882 36.6023 22.3576 36.7548 22.9542ZM38.5384 28.7262V21.0898H40.0249V28.7262H38.5384ZM39.2891 19.9116C39.0305 19.9116 38.8085 19.8254 38.6229 19.653C38.4406 19.4774 38.3494 19.2686 38.3494 19.0266C38.3494 18.7814 38.4406 18.5726 38.6229 18.4002C38.8085 18.2245 39.0305 18.1367 39.2891 18.1367C39.5476 18.1367 39.768 18.2245 39.9503 18.4002C40.1359 18.5726 40.2287 18.7814 40.2287 19.0266C40.2287 19.2686 40.1359 19.4774 39.9503 19.653C39.768 19.8254 39.5476 19.9116 39.2891 19.9116ZM45.2264 31.7489C44.6199 31.7489 44.0978 31.6694 43.6603 31.5103C43.2261 31.3512 42.8715 31.1407 42.5964 30.8789C42.3213 30.6171 42.1158 30.3304 41.9799 30.0188L43.2576 29.4918C43.3471 29.6377 43.4664 29.7918 43.6156 29.9542C43.7681 30.1199 43.9735 30.2608 44.2321 30.3768C44.4939 30.4928 44.8303 30.5508 45.2413 30.5508C45.8047 30.5508 46.2704 30.4132 46.6383 30.1381C47.0062 29.8663 47.1902 29.4322 47.1902 28.8356V27.3342H47.0957C47.0062 27.4966 46.877 27.6772 46.7079 27.8761C46.5422 28.0749 46.3135 28.2473 46.0218 28.3931C45.7302 28.5389 45.3507 28.6118 44.8833 28.6118C44.2801 28.6118 43.7366 28.471 43.2527 28.1893C42.7721 27.9042 42.3909 27.485 42.1092 26.9315C41.8308 26.3746 41.6916 25.6902 41.6916 24.8782C41.6916 24.0662 41.8291 23.3701 42.1042 22.7901C42.3826 22.2101 42.7638 21.766 43.2477 21.4577C43.7316 21.1462 44.2801 20.9904 44.8933 20.9904C45.3672 20.9904 45.7501 21.0699 46.0417 21.229C46.3334 21.3848 46.5604 21.5671 46.7228 21.7759C46.8886 21.9847 47.0162 22.1687 47.1056 22.3278H47.215V21.0898H48.6717V28.8952C48.6717 29.5515 48.5192 30.0901 48.2143 30.511C47.9094 30.9319 47.4967 31.2435 46.9764 31.4457C46.4593 31.6478 45.876 31.7489 45.2264 31.7489ZM45.2115 27.3789C45.639 27.3789 46.0003 27.2795 46.2953 27.0806C46.5936 26.8784 46.819 26.5901 46.9714 26.2155C47.1272 25.8377 47.2051 25.3853 47.2051 24.8583C47.2051 24.3446 47.1288 23.8922 46.9764 23.5011C46.8239 23.11 46.6002 22.805 46.3052 22.5863C46.0102 22.3642 45.6457 22.2532 45.2115 22.2532C44.764 22.2532 44.3912 22.3692 44.0929 22.6012C43.7946 22.8299 43.5692 23.1414 43.4167 23.5359C43.2676 23.9303 43.193 24.3711 43.193 24.8583C43.193 25.3588 43.2692 25.7979 43.4217 26.1758C43.5742 26.5536 43.7995 26.8486 44.0978 27.0607C44.3994 27.2728 44.7707 27.3789 45.2115 27.3789ZM52.1518 24.1921V28.7262H50.6653V21.0898H52.0922V22.3327H52.1866C52.3623 21.9284 52.6374 21.6036 53.0119 21.3583C53.3897 21.113 53.8654 20.9904 54.4387 20.9904C54.9591 20.9904 55.4148 21.0998 55.8059 21.3185C56.197 21.534 56.5003 21.8555 56.7157 22.283C56.9312 22.7106 57.0389 23.2392 57.0389 23.869V28.7262H55.5524V24.0479C55.5524 23.4944 55.4082 23.0619 55.1199 22.7503C54.8315 22.4355 54.4354 22.278 53.9316 22.278C53.5869 22.278 53.2804 22.3526 53.0119 22.5018C52.7467 22.6509 52.5363 22.8697 52.3805 23.158C52.228 23.4431 52.1518 23.7877 52.1518 24.1921ZM62.3237 28.8803C61.5713 28.8803 60.9234 28.7196 60.3798 28.3981C59.8395 28.0733 59.4219 27.6175 59.127 27.0309C58.8353 26.4409 58.6895 25.7499 58.6895 24.9577C58.6895 24.1755 58.8353 23.4861 59.127 22.8895C59.4219 22.293 59.8329 21.8273 60.3599 21.4925C60.8902 21.1578 61.51 20.9904 62.2193 20.9904C62.6502 20.9904 63.0678 21.0617 63.4721 21.2042C63.8765 21.3467 64.2394 21.5704 64.5609 21.8753C64.8824 22.1803 65.1359 22.5763 65.3216 23.0636C65.5072 23.5475 65.6 24.1358 65.6 24.8285V25.3555H59.5297V24.2418H64.1433C64.1433 23.8507 64.0637 23.5044 63.9047 23.2028C63.7456 22.8978 63.5218 22.6575 63.2335 22.4819C62.9484 22.3062 62.6137 22.2184 62.2292 22.2184C61.8116 22.2184 61.447 22.3211 61.1355 22.5266C60.8272 22.7288 60.5886 22.994 60.4196 23.3221C60.2538 23.6469 60.171 23.9999 60.171 24.381V25.2511C60.171 25.7615 60.2605 26.1957 60.4395 26.5536C60.6217 26.9116 60.8753 27.185 61.2001 27.3739C61.5249 27.5595 61.9044 27.6523 62.3386 27.6523C62.6203 27.6523 62.8772 27.6126 63.1092 27.533C63.3412 27.4502 63.5417 27.3275 63.7108 27.1651C63.8798 27.0027 64.0091 26.8022 64.0985 26.5636L65.5055 26.8171C65.3928 27.2314 65.1906 27.5943 64.899 27.9059C64.6106 28.2141 64.2477 28.4544 63.8102 28.6268C63.376 28.7958 62.8805 28.8803 62.3237 28.8803ZM70.108 28.8753C69.4915 28.8753 68.9413 28.7179 68.4574 28.403C67.9768 28.0849 67.599 27.6324 67.3239 27.0458C67.0521 26.4558 66.9162 25.7482 66.9162 24.9229C66.9162 24.0976 67.0537 23.3917 67.3288 22.805C67.6072 22.2184 67.9884 21.7693 68.4723 21.4577C68.9562 21.1462 69.5047 20.9904 70.1179 20.9904C70.5919 20.9904 70.973 21.0699 71.2614 21.229C71.553 21.3848 71.7784 21.5671 71.9375 21.7759C72.0999 21.9847 72.2259 22.1687 72.3153 22.3278H72.4048V18.5444H73.8913V28.7262H72.4396V27.538H72.3153C72.2259 27.7004 72.0966 27.886 71.9276 28.0948C71.7618 28.3036 71.5331 28.4859 71.2415 28.6417C70.9498 28.7975 70.572 28.8753 70.108 28.8753ZM70.4361 27.6076C70.8636 27.6076 71.2249 27.4949 71.5199 27.2695C71.8182 27.0408 72.0436 26.7243 72.196 26.3199C72.3518 25.9156 72.4297 25.4449 72.4297 24.908C72.4297 24.3777 72.3535 23.9137 72.201 23.516C72.0485 23.1182 71.8248 22.8083 71.5298 22.5863C71.2348 22.3642 70.8703 22.2532 70.4361 22.2532C69.9886 22.2532 69.6158 22.3692 69.3175 22.6012C69.0192 22.8332 68.7938 23.1497 68.6413 23.5508C68.4922 23.9518 68.4176 24.4042 68.4176 24.908C68.4176 25.4184 68.4938 25.8775 68.6463 26.2851C68.7988 26.6928 69.0241 27.016 69.3224 27.2546C69.6241 27.4899 69.9953 27.6076 70.4361 27.6076ZM81.3736 28.7262L79.1264 21.0898H80.6626L82.1591 26.6978H82.2337L83.7351 21.0898H85.2713L86.7628 26.6729H86.8374L88.3239 21.0898H89.8601L87.6179 28.7262H86.1016L84.5504 23.2127H84.4361L82.8849 28.7262H81.3736ZM91.2708 28.7262V21.0898H92.7573V28.7262H91.2708ZM92.0215 19.9116C91.763 19.9116 91.5409 19.8254 91.3553 19.653C91.173 19.4774 91.0819 19.2686 91.0819 19.0266C91.0819 18.7814 91.173 18.5726 91.3553 18.4002C91.5409 18.2245 91.763 18.1367 92.0215 18.1367C92.28 18.1367 92.5004 18.2245 92.6827 18.4002C92.8683 18.5726 92.9611 18.7814 92.9611 19.0266C92.9611 19.2686 92.8683 19.4774 92.6827 19.653C92.5004 19.8254 92.28 19.9116 92.0215 19.9116ZM98.3217 21.0898V22.283H94.1506V21.0898H98.3217ZM95.2692 19.2603H96.7557V26.484C96.7557 26.7724 96.7988 26.9895 96.8849 27.1353C96.9711 27.2778 97.0821 27.3756 97.218 27.4286C97.3572 27.4783 97.508 27.5032 97.6705 27.5032C97.7898 27.5032 97.8942 27.4949 97.9837 27.4783C98.0732 27.4618 98.1428 27.4485 98.1925 27.4386L98.4609 28.6665C98.3748 28.6997 98.2521 28.7328 98.093 28.766C97.9339 28.8024 97.7351 28.8223 97.4964 28.8256C97.1054 28.8323 96.7408 28.7627 96.4027 28.6168C96.0646 28.471 95.7912 28.2456 95.5824 27.9407C95.3736 27.6358 95.2692 27.2529 95.2692 26.7922V19.2603ZM101.617 24.1921V28.7262H100.13V18.5444H101.597V22.3327H101.691C101.87 21.9217 102.144 21.5953 102.512 21.3533C102.879 21.1114 103.36 20.9904 103.953 20.9904C104.477 20.9904 104.934 21.0981 105.325 21.3136C105.72 21.529 106.025 21.8505 106.24 22.278C106.459 22.7023 106.568 23.2326 106.568 23.869V28.7262H105.082V24.0479C105.082 23.4878 104.938 23.0536 104.649 22.7454C104.361 22.4338 103.96 22.278 103.446 22.278C103.095 22.278 102.78 22.3526 102.502 22.5018C102.227 22.6509 102.009 22.8697 101.85 23.158C101.695 23.4431 101.617 23.7877 101.617 24.1921Z" fill="white"/>
<path d="M135.856 8.9725L142.071 4L144.558 10.2156L135.856 8.9725Z" fill="white"/>
<path d="M144.558 10.2156L142.071 4L148.287 8.9725L144.558 10.2156Z" fill="#96D3FF"/>
<path d="M144.558 10.2156L142.071 15.1881L148.287 8.97249L144.558 10.2156Z" fill="#497BB5"/>
<path d="M135.856 8.97249L142.071 15.1881L144.558 10.2156L135.856 8.97249Z" fill="#C4DBFE"/>
<path d="M115.713 37.4522V10.8826H126.056C127.93 10.8826 129.548 11.2718 130.909 12.0502C132.278 12.8199 133.334 13.8967 134.075 15.2806C134.817 16.6558 135.188 18.2558 135.188 20.0808C135.188 21.9143 134.809 23.5187 134.051 24.8939C133.301 26.2604 132.229 27.3199 130.836 28.0724C129.442 28.8249 127.787 29.2011 125.872 29.2011H121.699V24.1414H124.747C125.66 24.1414 126.422 23.9728 127.034 23.6355C127.653 23.2982 128.122 22.8268 128.44 22.2214C128.757 21.6073 128.916 20.8938 128.916 20.0808C128.916 19.2591 128.757 18.5499 128.44 17.9531C128.122 17.3477 127.653 16.8806 127.034 16.552C126.414 16.2233 125.652 16.059 124.747 16.059H121.764V37.4522H115.713Z" fill="#8CCFFF"/>
<path d="M144.91 20.2021V37.4522H138.858V24.1674V20.2021H144.91Z" fill="#8CCFFF"/>
</svg>
